<mxfile host="app.diagrams.net" modified="2020-09-15T16:55:22.209Z" agent="5.0 (Windows NT 10.0; Win64; x64) AppleWebKit/537.36 (KHTML, like Gecko) Chrome/85.0.4183.102 Safari/537.36" etag="ENjQEOuDOX9RrmyaFUpy" version="13.7.1" type="github">
  <diagram id="PWuHAglauI7eNDatrXnF" name="Page-1">
    <mxGraphModel dx="1038" dy="531" grid="1" gridSize="10" guides="1" tooltips="1" connect="1" arrows="1" fold="1" page="1" pageScale="1" pageWidth="850" pageHeight="1100" math="0" shadow="0">
      <root>
        <mxCell id="0" />
        <mxCell id="1" parent="0" />
        <mxCell id="V_bVG_-Q1_p_RiibMdar-1" value="" style="whiteSpace=wrap;html=1;aspect=fixed;" vertex="1" parent="1">
          <mxGeometry x="105.00000000000001" y="70" width="640" height="640" as="geometry" />
        </mxCell>
        <mxCell id="V_bVG_-Q1_p_RiibMdar-2" value="" style="rounded=0;whiteSpace=wrap;html=1;" vertex="1" parent="1">
          <mxGeometry x="105.00000000000001" y="70" width="640" height="60" as="geometry" />
        </mxCell>
        <mxCell id="V_bVG_-Q1_p_RiibMdar-3" value="&lt;font style=&quot;font-size: 24px&quot; face=&quot;NiteClub&quot; data-font-src=&quot;https://www.dafont.com/nite-club.font&quot;&gt;&lt;b&gt;Lofi Chai&lt;/b&gt;&lt;/font&gt;" style="text;html=1;strokeColor=none;fillColor=none;align=center;verticalAlign=middle;whiteSpace=wrap;rounded=0;" vertex="1" parent="1">
          <mxGeometry x="360" y="80" width="110" height="40" as="geometry" />
        </mxCell>
        <mxCell id="V_bVG_-Q1_p_RiibMdar-4" value="" style="rounded=0;whiteSpace=wrap;html=1;" vertex="1" parent="1">
          <mxGeometry x="105.00000000000001" y="130" width="640" height="60" as="geometry" />
        </mxCell>
        <mxCell id="V_bVG_-Q1_p_RiibMdar-5" value="Home" style="text;html=1;strokeColor=none;fillColor=none;align=center;verticalAlign=middle;whiteSpace=wrap;rounded=0;" vertex="1" parent="1">
          <mxGeometry x="125.00000000000001" y="150" width="40" height="20" as="geometry" />
        </mxCell>
        <mxCell id="V_bVG_-Q1_p_RiibMdar-6" value="About" style="text;html=1;strokeColor=none;fillColor=none;align=center;verticalAlign=middle;whiteSpace=wrap;rounded=0;" vertex="1" parent="1">
          <mxGeometry x="175" y="150" width="40" height="20" as="geometry" />
        </mxCell>
        <mxCell id="V_bVG_-Q1_p_RiibMdar-7" value="Events" style="text;html=1;strokeColor=none;fillColor=none;align=center;verticalAlign=middle;whiteSpace=wrap;rounded=0;" vertex="1" parent="1">
          <mxGeometry x="225" y="150" width="40" height="20" as="geometry" />
        </mxCell>
        <mxCell id="V_bVG_-Q1_p_RiibMdar-10" value="" style="rounded=0;whiteSpace=wrap;html=1;" vertex="1" parent="1">
          <mxGeometry x="105.00000000000001" y="650" width="640" height="60" as="geometry" />
        </mxCell>
        <mxCell id="V_bVG_-Q1_p_RiibMdar-12" value="Routes page to display Home, About, Events, and Rooms information" style="text;html=1;strokeColor=none;fillColor=none;align=center;verticalAlign=middle;whiteSpace=wrap;rounded=0;" vertex="1" parent="1">
          <mxGeometry x="105.00000000000001" y="690" width="640" height="20" as="geometry" />
        </mxCell>
        <mxCell id="V_bVG_-Q1_p_RiibMdar-21" value="Rooms" style="text;html=1;strokeColor=none;fillColor=none;align=center;verticalAlign=middle;whiteSpace=wrap;rounded=0;" vertex="1" parent="1">
          <mxGeometry x="280" y="150" width="40" height="20" as="geometry" />
        </mxCell>
        <mxCell id="V_bVG_-Q1_p_RiibMdar-22" value="" style="rounded=0;whiteSpace=wrap;html=1;" vertex="1" parent="1">
          <mxGeometry x="565" y="130" width="180" height="60" as="geometry" />
        </mxCell>
        <mxCell id="V_bVG_-Q1_p_RiibMdar-23" value="&lt;b&gt;MP3 Player&lt;/b&gt;" style="text;html=1;fillColor=none;align=center;verticalAlign=middle;whiteSpace=wrap;rounded=0;strokeColor=#000000;" vertex="1" parent="1">
          <mxGeometry x="565" y="130" width="180" height="30" as="geometry" />
        </mxCell>
        <mxCell id="V_bVG_-Q1_p_RiibMdar-24" value="&lt;b&gt;Skip/Pause/Play&lt;/b&gt;" style="text;html=1;fillColor=none;align=center;verticalAlign=middle;whiteSpace=wrap;rounded=0;strokeColor=#000000;" vertex="1" parent="1">
          <mxGeometry x="565" y="160" width="100" height="30" as="geometry" />
        </mxCell>
        <mxCell id="V_bVG_-Q1_p_RiibMdar-25" value="&lt;b&gt;Volume Slider&lt;/b&gt;" style="text;html=1;fillColor=none;align=center;verticalAlign=middle;whiteSpace=wrap;rounded=0;strokeColor=#000000;" vertex="1" parent="1">
          <mxGeometry x="665" y="160" width="80" height="30" as="geometry" />
        </mxCell>
        <mxCell id="V_bVG_-Q1_p_RiibMdar-29" value="&lt;h1&gt;&lt;b style=&quot;font-family: &amp;#34;niteclub&amp;#34; ; font-size: 36px ; text-align: center&quot;&gt;About Us&lt;/b&gt;&lt;br&gt;&lt;/h1&gt;&lt;p&gt;Details information about the club and message from the founder. May include image of the club within the background.&lt;/p&gt;" style="text;html=1;strokeColor=none;fillColor=none;spacing=5;spacingTop=-20;whiteSpace=wrap;overflow=hidden;rounded=0;" vertex="1" parent="1">
          <mxGeometry x="125" y="210" width="295" height="190" as="geometry" />
        </mxCell>
        <mxCell id="V_bVG_-Q1_p_RiibMdar-30" value="&lt;b&gt;&lt;font style=&quot;font-size: 23px&quot;&gt;About&lt;/font&gt;&lt;/b&gt;" style="text;html=1;strokeColor=none;fillColor=none;align=center;verticalAlign=middle;whiteSpace=wrap;rounded=0;" vertex="1" parent="1">
          <mxGeometry x="58" y="18" width="160" height="50" as="geometry" />
        </mxCell>
        <mxCell id="V_bVG_-Q1_p_RiibMdar-31" value="&lt;b&gt;&lt;font style=&quot;font-size: 24px&quot;&gt;&amp;nbsp; &amp;nbsp; &amp;nbsp; &amp;nbsp; &amp;nbsp; &amp;nbsp; &lt;font face=&quot;NiteClub&quot; data-font-src=&quot;https://www.dafont.com/nite-club.font&quot;&gt;Home&lt;/font&gt;&amp;nbsp; &amp;nbsp; &amp;nbsp; &amp;nbsp; &amp;nbsp;&lt;font face=&quot;NiteClub&quot; data-font-src=&quot;https://www.dafont.com/nite-club.font&quot;&gt;About&lt;/font&gt;&amp;nbsp; &amp;nbsp; &amp;nbsp; &amp;nbsp; &amp;nbsp; &amp;nbsp;&amp;nbsp;&lt;font face=&quot;NiteClub&quot; data-font-src=&quot;https://www.dafont.com/nite-club.font&quot;&gt;Events&lt;/font&gt;&amp;nbsp; &amp;nbsp; &amp;nbsp; &amp;nbsp; &amp;nbsp;&lt;font face=&quot;NiteClub&quot; data-font-src=&quot;https://www.dafont.com/nite-club.font&quot;&gt;Rooms&lt;/font&gt;&amp;nbsp;&lt;/font&gt;&lt;/b&gt;" style="text;html=1;strokeColor=none;fillColor=none;align=left;verticalAlign=middle;whiteSpace=wrap;rounded=0;" vertex="1" parent="1">
          <mxGeometry x="105.00000000000001" y="650" width="640" height="30" as="geometry" />
        </mxCell>
      </root>
    </mxGraphModel>
  </diagram>
</mxfile>
